<svg xmlns="http://www.w3.org/2000/svg" width="300" height="429.49"><defs><clipPath id="a"><path d="M640.55 230.56h11.5v16.52h-11.5v-16.52z"/></clipPath></defs><g clip-path="url(#a)" transform="matrix(25.81688 0 0 -25.81688 -16535.43 6380.3)"><path fill="#4285f4" d="M646.3 236.38c1.37 0 2.46 1.1 2.46 2.47l.01 5.76a2.47 2.47 0 1 1-4.94 0v-5.76c0-1.37 1.11-2.47 2.47-2.47"/><path fill="#34a853" d="M645.48 233.15v-2.6h1.65v2.57c-.27-.04-.54-.03-.82-.03-.28 0-.56.02-.83.06"/><path fill="#fbbc05" d="M643.38 235.91a3.9 3.9 0 0 0-1.19 2.88h-1.64c0-1.65.64-3 1.68-4.04h.01v.02l1.14 1.14z"/><path fill="#ea4335" d="M650.4 238.79a4.22 4.22 0 0 0-4.1-4.09c-1.13 0-2.16.48-2.9 1.23l-.02-.02-1.15-1.14.01-.01a5.74 5.74 0 0 1 4.07-1.67c.28 0 .55 0 .82.03 2.79.4 4.92 2.79 4.92 5.67h-1.64z"/></g></svg>