<svg xmlns="http://www.w3.org/2000/svg" viewBox="0 0 300 429.49"><path fill="#4285f4" d="M150 277.71a63.36 63.36 0 0 0 63.51-63.77l.26-148.71a63.77 63.77 0 0 0-127.54 0v148.71A63.74 63.74 0 0 0 150 277.71"/><path fill="#34a853" d="M128.85 361.09v67.13h42.6v-66.35c-7 1-13.94.77-21.17.77a145.91 145.91 0 0 1-21.43-1.55"/><path fill="#fbbc05" d="M74.63 289.84a100.74 100.74 0 0 1-30.72-74.35H1.57c0 42.59 16.53 77.45 43.37 104.3h.26v-.52l29.43-29.43z"/><path fill="#ea4335" d="M255.87 215.49A109 109 0 0 1 150 321.08a105.38 105.38 0 0 1-74.87-31.76l-.52.52-29.67 29.43.26.26a148.16 148.16 0 0 0 105.08 43.11 192.17 192.17 0 0 0 21.17-.77c72-10.33 127-72 127-146.38h-42.6z"/></svg>