<svg xmlns="http://www.w3.org/2000/svg" viewBox="0 0 74 24"><path fill="#4285F4" d="M9.2 8.2v2.5h6a5.2 5.2 0 0 1-1.4 3 6 6 0 0 1-4.6 1.8c-3.6 0-6.4-2.9-6.4-6.5a6.5 6.5 0 0 1 10.9-4.8l1.7-1.7A8.5 8.5 0 0 0 9.2 0c-5 0-9 4-9 9s4 9 9 9c2.7 0 4.7-.9 6.3-2.5 1.6-1.6 2.1-4 2.1-5.8V8.2H9.1z"/><path fill="#EA4335" d="M25 6.2a5.7 5.7 0 0 0-5.8 5.8c0 3.3 2.6 5.8 5.8 5.8s5.8-2.5 5.8-5.8c0-3.4-2.6-5.8-5.8-5.8zm0 9.3c-1.8 0-3.3-1.4-3.3-3.5 0-2 1.5-3.5 3.3-3.5s3.3 1.4 3.3 3.5c0 2-1.5 3.5-3.3 3.5z"/><path fill="#4285F4" d="M53.6 7.5h-.1a4 4 0 0 0-3-1.3c-3 0-5.5 2.5-5.5 5.8s2.5 5.8 5.4 5.8a4 4 0 0 0 3-1.3h.2v.8c0 2.2-1.2 3.4-3.1 3.4-1.6 0-2.5-1.1-3-2l-2.2.9a5.5 5.5 0 0 0 5.2 3.4c3 0 5.5-1.8 5.5-6V6.4h-2.4v1zm-3 8c-1.7 0-3-1.5-3-3.5s1.3-3.5 3-3.5c1.8 0 3.1 1.5 3.1 3.5s-1.3 3.5-3 3.5z"/><path fill="#FBBC05" d="M38 6.2a5.7 5.7 0 0 0-5.8 5.8c0 3.3 2.6 5.8 5.8 5.8s5.8-2.5 5.8-5.8c0-3.4-2.6-5.8-5.8-5.8zm0 9.3c-1.8 0-3.3-1.4-3.3-3.5 0-2 1.5-3.5 3.3-3.5s3.3 1.4 3.3 3.5c0 2-1.5 3.5-3.3 3.5z"/><path fill="#34A853" d="M58 .2h2.5v17.6H58z"/><path fill="#EA4335" d="M68.3 15.5a3 3 0 0 1-2.9-1.7l7.8-3.3-.2-.6c-.5-1.3-2-3.7-5-3.7s-5.5 2.3-5.5 5.8c0 3.3 2.5 5.8 5.8 5.8 2.6 0 4.2-1.6 4.8-2.6l-2-1.3c-.6 1-1.5 1.6-2.8 1.6zM68 8.4c1 0 1.9.5 2.2 1.2L65 11.8c0-2.4 1.8-3.4 3-3.4z"/></svg>