<svg xmlns="http://www.w3.org/2000/svg" viewBox="0 0 1280 960"><defs><mask id="a" width="1418" height="1445" x="-44" y="-197" maskUnits="userSpaceOnUse"><path fill="#fff" d="M0 0h1280v960H0z"/></mask></defs><path fill="#fff" d="M0 0h1280v960H0z"/><g fill="#eceff1" mask="url(#a)"><path style="isolation:isolate" d="M472 1248a268 268 0 1 0 0-536 268 268 0 0 0 0 536zM176 674a50 50 0 1 0-50-50 50 50 0 0 0 50 50zM776 830a40 40 0 1 0-40-40 40 40 0 0 0 40 40z" opacity=".3"/><path style="isolation:isolate" d="M114 752A158 158 0 1 0-44 594a158 158 0 0 0 158 158zM939 461a329 329 0 1 0 0-658 329 329 0 0 0 0 658z" opacity=".3"/><path style="isolation:isolate" d="M610 207A108 108 0 1 0 502 99a108 108 0 0 0 108 108zM1175 619a199 199 0 1 0 0-398 199 199 0 0 0 0 398z" opacity=".3"/></g></svg>